<svg width="54" height="54" viewBox="0 0 54 54" fill="none" xmlns="http://www.w3.org/2000/svg">
<g clip-path="url(#clip0_444_57)">
<path d="M9.72 2.16C9.72 3.348 10.26 4.32 10.8 4.32C11.448 4.32 11.88 3.78 11.88 3.24C11.88 2.592 18.9 2.16 30.78 2.16H49.68V14.58C49.68 26.028 49.572 27 47.628 27C46.332 27 45.684 26.244 45.792 25.056C45.9 23.544 44.928 23.112 40.824 22.896C36.18 22.572 35.64 22.788 35.64 24.732C35.64 26.784 34.992 27 29.16 27C25.596 27 22.68 27.432 22.68 28.08C22.68 28.62 28.836 29.268 37.584 29.484L52.38 29.808L37.584 30.024C28.512 30.132 22.68 30.672 22.68 31.32C22.68 31.968 28.62 32.4 38.34 32.4H54V29.7C54 28.188 53.568 27 52.92 27C52.272 27 51.84 21.816 51.84 13.5V6.85453e-07H30.78C10.476 6.85453e-07 9.72 0.108001 9.72 2.16Z" fill="#6C2165" fill-opacity="0.68"/>
<path d="M8.64 7.56C5.94 10.26 5.832 13.392 8.424 15.984C10.368 17.928 10.368 18.036 8.208 19.008C6.264 19.872 5.94 21.06 5.616 27.54C5.4 32.508 4.752 35.748 3.564 36.936C2.484 38.124 2.16 39.744 2.592 41.58C3.024 43.308 2.7 45.252 1.62 46.764C0.756 48.06 0 50.22 0 51.516V54H27H54V51.516C54 50.112 53.244 48.06 52.38 46.872C51.408 45.576 51.084 43.524 51.408 41.472C52.38 36.18 47.628 32.832 43.2 35.64C42.12 36.288 41.58 38.34 41.58 41.256C41.58 44.712 41.148 45.9 39.96 45.9C38.772 45.9 38.34 44.712 38.34 41.256C38.34 36.612 36.828 34.56 33.48 34.56C30.132 34.56 28.62 36.612 28.62 41.256C28.62 44.712 28.188 45.9 27 45.9C25.812 45.9 25.488 44.928 25.704 42.012C25.92 39.312 25.38 37.584 23.76 36.18C22.248 34.776 21.6 32.832 21.6 29.592C21.6 25.272 21.924 24.732 25.164 23.436C29.16 21.708 35.1 13.824 34.128 11.34C33.156 8.748 30.672 9.396 27.216 13.392C24.948 15.984 22.788 17.28 19.44 17.82L14.904 18.576L17.172 16.308C18.468 15.012 19.44 13.068 19.44 11.88C19.44 9.072 15.768 5.4 12.96 5.4C11.772 5.4 9.828 6.372 8.64 7.56ZM16.2 9.18C17.82 11.124 17.28 14.04 14.904 15.552C11.124 17.928 6.912 12.636 9.72 9.18C11.448 7.128 14.472 7.128 16.2 9.18ZM32.4 12.528C32.4 14.364 26.136 20.844 23.004 22.14C19.656 23.544 19.44 23.976 19.44 28.944C19.44 32.832 18.9 34.776 17.28 36.18C15.66 37.584 15.12 39.312 15.336 42.012C15.552 44.928 15.228 45.9 14.04 45.9C12.96 45.9 12.528 44.928 12.636 43.2C12.96 38.664 11.988 35.856 9.72 35.1C7.668 34.452 7.452 33.588 7.776 27.756L8.1 21.06L16.2 20.304C23.652 19.548 24.516 19.224 27.54 15.768C30.564 12.312 32.4 11.124 32.4 12.528ZM10.26 39.96C10.26 41.904 9.612 42.768 7.776 42.984C6.372 43.2 5.076 42.66 4.752 41.688C3.672 38.88 5.184 36.504 7.776 36.936C9.612 37.152 10.26 38.016 10.26 39.96ZM23.22 39.96C23.22 41.904 22.572 42.768 20.736 42.984C19.332 43.2 18.036 42.66 17.712 41.688C16.632 38.88 18.144 36.504 20.736 36.936C22.572 37.152 23.22 38.016 23.22 39.96ZM36.18 39.96C36.18 41.904 35.532 42.768 33.696 42.984C31.104 43.416 29.592 41.04 30.672 38.232C30.996 37.26 32.292 36.72 33.696 36.936C35.532 37.152 36.18 38.016 36.18 39.96ZM49.14 39.96C49.14 41.904 48.492 42.768 46.656 42.984C45.252 43.2 43.956 42.66 43.632 41.688C42.552 38.88 44.064 36.504 46.656 36.936C48.492 37.152 49.14 38.016 49.14 39.96ZM11.232 47.088C14.58 50.328 13.392 51.84 7.56 51.84C3.564 51.84 2.16 51.408 2.16 50.328C2.16 48.168 5.184 45.36 7.56 45.36C8.64 45.36 10.368 46.116 11.232 47.088ZM24.192 47.088C27.54 50.328 26.352 51.84 20.52 51.84C14.688 51.84 13.5 50.328 16.848 47.088C19.008 44.928 22.032 44.928 24.192 47.088ZM37.152 47.088C40.5 50.328 39.312 51.84 33.48 51.84C27.648 51.84 26.46 50.328 29.808 47.088C31.968 44.928 34.992 44.928 37.152 47.088ZM50.112 47.088C53.46 50.328 52.272 51.84 46.44 51.84C42.444 51.84 41.04 51.408 41.04 50.328C41.04 48.168 44.064 45.36 46.44 45.36C47.52 45.36 49.248 46.116 50.112 47.088Z" fill="#6C2165" fill-opacity="0.68"/>
</g>
<defs>
<clipPath id="clip0_444_57">
<rect width="54" height="54" fill="white"/>
</clipPath>
</defs>
</svg>
