<svg width="58" height="58" viewBox="0 0 58 58" fill="none" xmlns="http://www.w3.org/2000/svg">
<path d="M16.53 9.9325L5.075 13.92V16.7475C5.075 18.3425 5.4375 19.575 5.8 19.575C6.235 19.575 6.525 25.5925 6.525 36.25V52.925H29H51.475V36.25C51.475 25.5925 51.765 19.575 52.2 19.575C52.635 19.575 52.925 18.27 52.925 16.7475V13.92L48.0675 12.2525C45.3125 11.3825 40.0925 9.57 36.3225 8.265C32.5525 6.8875 29.145 5.8725 28.71 5.8725C28.275 5.945 22.765 7.7575 16.53 9.9325ZM40.455 11.2375C49.8075 14.4275 52.49 15.8775 51.2575 17.1825C50.9675 17.4 45.8925 16.0225 39.875 14.21L29 10.8025L18.56 14.1375C12.8325 15.95 7.7575 17.4 7.25 17.4C6.815 17.4 6.525 16.82 6.67 16.1675C6.815 15.2975 10.0775 13.8475 17.7625 11.165C23.78 9.0625 29 7.395 29.3625 7.54C29.7975 7.685 34.8 9.3525 40.455 11.2375ZM40.455 15.95L50.025 18.9225V35.235V51.475H29H7.975V35.235V18.995L16.53 16.3125C21.17 14.8625 25.81 13.4125 26.825 13.05C29 12.325 28.42 12.18 40.455 15.95Z" fill="#6C2165" fill-opacity="0.94"/>
<path d="M19.7925 25.1575C12.035 28.2025 10.15 29.725 12.6875 30.74C14.065 31.2475 14.21 39.2225 12.905 41.2525C12.2525 42.2675 12.325 43.1375 13.05 44.8775C14.21 47.705 14.79 47.705 15.95 44.8775C16.675 43.1375 16.7475 42.2675 16.095 41.2525C15.0075 39.5125 14.935 31.9 16.0225 31.9C18.27 31.9 19.575 33.495 19.575 36.25C19.575 38.9325 19.72 39.15 22.33 39.8025C25.7375 40.8175 32.19 40.8175 35.67 39.875C38.135 39.15 38.3525 38.86 38.57 36.0325C38.7875 33.06 38.86 32.9875 42.63 31.61C44.66 30.885 46.4 29.87 46.4 29.3625C46.4 28.4925 30.45 21.6775 28.71 21.8225C28.275 21.8225 24.215 23.345 19.7925 25.1575ZM36.83 26.245L44.5875 29.29L42.05 30.305C39.875 31.175 39.15 31.175 36.0325 30.16C34.075 29.5075 30.885 29 29 29C27.115 29 23.925 29.5075 21.9675 30.16C18.85 31.175 18.125 31.175 15.95 30.305L13.4125 29.29L21.025 26.245C25.23 24.5775 28.71 23.2 28.855 23.2C29 23.2 32.625 24.5775 36.83 26.245ZM36.25 31.5375C36.685 31.755 36.975 32.8425 36.975 33.93V35.8875H29H20.9525L21.17 33.7125C21.315 31.9725 21.8225 31.465 23.5625 31.03C25.955 30.45 35.09 30.8125 36.25 31.5375ZM34.7275 37.4825C36.395 37.9175 36.395 37.99 35.09 38.4975C33.35 39.2225 25.5925 39.295 23.2725 38.6425C21.605 38.2075 21.605 38.135 22.91 37.6275C24.65 36.9025 32.4075 36.83 34.7275 37.4825ZM15.225 42.775C15.225 43.1375 14.935 43.5 14.5 43.5C14.1375 43.5 13.775 43.1375 13.775 42.775C13.775 42.34 14.1375 42.05 14.5 42.05C14.935 42.05 15.225 42.34 15.225 42.775Z" fill="#6C2165" fill-opacity="0.94"/>
<path d="M28.275 24.65C28.275 25.0125 28.6375 25.375 29 25.375C29.435 25.375 29.725 25.0125 29.725 24.65C29.725 24.215 29.435 23.925 29 23.925C28.6375 23.925 28.275 24.215 28.275 24.65Z" fill="#6C2165" fill-opacity="0.94"/>
<path d="M28.275 27.55C28.275 27.9125 28.6375 28.275 29 28.275C29.435 28.275 29.725 27.9125 29.725 27.55C29.725 27.115 29.435 26.825 29 26.825C28.6375 26.825 28.275 27.115 28.275 27.55Z" fill="#6C2165" fill-opacity="0.94"/>
</svg>
