<svg width="62" height="62" viewBox="0 0 62 62" fill="none" xmlns="http://www.w3.org/2000/svg">
<path d="M30.1645 6.99922C29.9344 7.10821 29.6437 7.33829 29.5227 7.50782C29.4137 7.67735 28.5781 10.184 27.682 13.0781L26.0594 18.3457L20.5133 18.4063C16.2387 18.4547 14.8945 18.5031 14.6766 18.6242C13.9984 19.0117 13.6957 20.2832 14.1074 21.0703C14.2164 21.2762 15.9602 22.693 18.5758 24.7031C20.9492 26.5074 22.9109 28.0332 22.9473 28.0938C22.9957 28.1785 20.2832 37.2484 20.1621 37.3938C20.1137 37.4543 17.8613 34.3785 17.8855 34.2816C17.8977 34.2332 18.7816 32.9496 19.8473 31.4238C21.3852 29.2563 21.7969 28.5902 21.7969 28.2875C21.7969 27.8516 21.4457 27.4035 21.0219 27.2945C20.8523 27.2582 19.593 27.6215 17.498 28.3238C15.718 28.9293 14.2406 29.4258 14.2164 29.4258C14.1922 29.4258 13.2598 28.2148 12.1578 26.7254C11.0437 25.2481 10.0508 23.9645 9.95391 23.8797C9.62695 23.6254 8.98516 23.6981 8.63398 24.0492L8.33125 24.352L8.36758 27.8758L8.41602 31.3875L5.15859 32.5016C1.71953 33.6762 1.45312 33.8215 1.45312 34.5238C1.45312 35.2262 1.76797 35.3957 5.21914 36.4613L8.44023 37.4543L8.53711 39.7672L8.62187 42.0801L8.29492 42.6492C7.89531 43.3758 7.78633 44.3082 8.02852 45.0832L8.21016 45.6645L7.53203 45.9672C2.15547 48.3406 2.15547 48.3406 1.98594 48.7645C1.84062 49.1035 1.84062 49.2246 1.98594 49.5758C2.13125 49.9391 2.30078 50.0359 3.52383 50.5566C4.28672 50.8715 4.95273 51.1742 5.00117 51.2227C5.04961 51.2711 4.88008 51.925 4.60156 52.6879C4.04453 54.2742 4.02031 54.468 4.37148 54.9039C4.81953 55.473 5.18281 55.3762 9.39687 53.5113C11.5281 52.5668 13.4535 51.6465 13.6836 51.4648C14.3012 50.9805 14.7734 50.0117 14.7734 49.2246C14.7734 48.8613 14.725 48.4375 14.6523 48.268C14.5434 47.9652 14.5434 47.9531 16.0812 47.4688C21.1793 45.8219 25.6598 45.1195 31 45.1195C36.3402 45.1195 40.9781 45.8582 45.9551 47.4688C47.4445 47.9531 47.4566 47.9652 47.3477 48.268C47.275 48.4375 47.2266 48.8613 47.2266 49.2246C47.2266 50.0117 47.6988 50.9805 48.3164 51.4648C48.5465 51.6465 50.4719 52.5668 52.6031 53.5113C56.8172 55.3762 57.1805 55.473 57.6285 54.9039C57.9797 54.4559 57.9555 54.25 57.3984 52.6758C57.1199 51.925 56.9504 51.2711 56.9988 51.2227C57.0473 51.1742 57.7133 50.8715 58.4762 50.5566C59.6992 50.0359 59.8687 49.9391 60.0141 49.5758C60.1594 49.2246 60.1594 49.1035 60.0141 48.7645C59.8687 48.3891 59.6508 48.268 57.4469 47.2871C56.127 46.7059 54.7586 46.0883 54.4195 45.9309L53.7898 45.6402L53.9715 45.0711C54.2137 44.3082 54.1047 43.3637 53.7051 42.6492L53.3781 42.0801L53.4629 39.7672L53.5598 37.4543L56.7809 36.4613C60.2199 35.3957 60.5469 35.2262 60.5469 34.5238C60.5469 33.8215 60.2805 33.6762 56.8414 32.5016L53.584 31.3875L53.6324 27.8758L53.6687 24.352L53.366 24.0492C53.0148 23.6981 52.373 23.6254 52.0461 23.8797C51.9492 23.9645 50.9562 25.2481 49.8422 26.7254C48.7402 28.2148 47.8078 29.4258 47.7836 29.4258C47.7473 29.4258 46.282 28.9293 44.502 28.3238C41.1234 27.1734 40.9176 27.1371 40.4453 27.6336C39.9367 28.1906 40.0699 28.4691 42.1527 31.4238C43.2184 32.9496 44.1023 34.2332 44.1145 34.2816C44.1387 34.3785 41.8863 37.4543 41.8379 37.3938C41.7168 37.2363 39.0043 28.1785 39.0527 28.0938C39.0891 28.0332 41.0508 26.5074 43.4121 24.7031C46.0762 22.6688 47.7836 21.2883 47.8926 21.0703C48.3043 20.2832 48.0016 19.0117 47.3234 18.6242C47.1055 18.5031 45.7613 18.4547 41.4867 18.4063L35.9406 18.3457L34.318 13.0781C33.4219 10.184 32.5863 7.67735 32.4773 7.50782C32.1867 7.10821 31.5207 6.78125 31 6.78125C30.7699 6.78125 30.3945 6.87813 30.1645 6.99922ZM32.6348 14.6766C33.4945 17.4738 34.3059 19.9078 34.427 20.0531L34.6449 20.3438L40.1184 20.368L45.5918 20.4043L41.2324 23.7344C38.2051 26.0473 36.8367 27.1613 36.7641 27.3793C36.6793 27.6457 36.9457 28.6508 38.2293 32.8043C39.1012 35.6137 39.7672 37.9023 39.7066 37.9023C39.3797 37.9023 38.6168 37.3816 35.3352 34.8629C33.3129 33.3129 31.5207 31.993 31.3391 31.9203C31.0969 31.8355 30.9031 31.8355 30.673 31.9203C30.4793 31.993 28.6871 33.3129 26.6648 34.8629C23.3832 37.3816 22.6203 37.9023 22.2934 37.9023C22.2328 37.9023 22.8988 35.6137 23.7707 32.8043C25.0543 28.6387 25.3207 27.6457 25.2359 27.3793C25.1633 27.1613 23.7828 26.0473 20.7676 23.7344L16.4082 20.4043L21.8816 20.368L27.3551 20.3438L27.573 20.0531C27.7062 19.8957 28.5055 17.4738 29.3773 14.6645C30.2371 11.8672 30.9637 9.56641 31 9.56641C31.0363 9.56641 31.7629 11.8672 32.6348 14.6766ZM11.9883 30.0191C12.7391 31.0121 13.2598 31.5813 13.4656 31.6539C13.732 31.7508 14.168 31.6418 15.8148 31.0848C16.9289 30.7094 17.8613 30.4188 17.8977 30.4551C17.9219 30.4793 17.4012 31.2785 16.723 32.223C15.7906 33.543 15.5 34.0395 15.5 34.3422C15.5 34.6449 15.7785 35.1051 16.7836 36.4492C17.4859 37.3938 18.043 38.193 18.0187 38.2051C17.9945 38.2293 17.1227 37.9871 16.0691 37.648C14.1922 37.0668 13.7684 36.982 13.393 37.1273C13.284 37.1637 12.6422 37.9992 11.952 38.968L10.7168 40.7238L10.632 40.2516C10.5836 39.9973 10.5473 39.0043 10.5473 38.0598C10.5352 35.8316 10.6199 35.9285 8.11328 35.1777C7.08398 34.8629 6.17578 34.5723 6.09102 34.5238C6.00625 34.4875 6.86602 34.1242 7.99219 33.7367C9.17891 33.325 10.1234 32.9254 10.2566 32.7922C10.4504 32.5742 10.4746 32.3199 10.4504 30.225C10.4141 27.9969 10.4262 27.9242 10.632 28.2027C10.741 28.3723 11.3586 29.1836 11.9883 30.0191ZM51.5617 30.2613C51.5254 32.3199 51.5496 32.5742 51.7434 32.7922C51.8766 32.9254 52.8211 33.325 54.0078 33.7367C55.134 34.1242 55.9937 34.4875 55.909 34.5238C55.8242 34.5723 54.916 34.8629 53.8867 35.1777C51.3801 35.9285 51.4648 35.8316 51.4527 38.0598C51.4527 39.0043 51.4164 39.9973 51.368 40.2516L51.2832 40.7238L50.048 38.968C49.3578 37.9992 48.716 37.1637 48.607 37.1273C48.2316 36.982 47.8199 37.0668 45.943 37.6602C44.8895 37.9871 44.0055 38.2293 43.9812 38.2172C43.957 38.193 44.5141 37.3938 45.2164 36.4371C46.2094 35.1051 46.5 34.6207 46.5 34.3301C46.5 34.0395 46.2094 33.5309 45.277 32.223C44.5988 31.2785 44.0781 30.4793 44.1023 30.4551C44.1387 30.4188 45.0711 30.7094 46.1852 31.0848C47.8199 31.6297 48.2801 31.7387 48.5344 31.6539C48.7523 31.5813 49.3094 30.9395 50.1934 29.7648C50.932 28.784 51.5375 27.9727 51.5617 27.9727C51.5859 27.9727 51.5859 29.002 51.5617 30.2613ZM32.9617 35.6863C33.9789 36.4613 34.8508 37.1273 34.8992 37.1637C34.9477 37.2121 33.1918 37.2484 30.9879 37.2484C27.1977 37.2484 27.0039 37.2363 27.2703 37.0426C27.4277 36.9215 28.2875 36.2676 29.1836 35.5652C30.0797 34.8629 30.891 34.2816 30.9637 34.2816C31.0484 34.2695 31.9445 34.8992 32.9617 35.6863ZM36.5582 39.5371C41.2203 40.0457 45.9793 41.184 50.2539 42.8188C51.6465 43.3516 52.0703 43.6543 52.0703 44.0902C52.0703 44.2234 51.8402 44.8289 51.5496 45.4465C50.8715 46.8875 50.702 46.9844 49.5516 46.5484C40.0941 42.952 30.8062 42.1043 21.252 43.9691C18.9027 44.4293 15.6332 45.3496 13.393 46.1973C11.1648 47.0328 11.2012 47.0449 10.4625 45.4707C10.1719 44.841 9.92969 44.2234 9.92969 44.0902C9.92969 43.6543 10.3535 43.3516 11.7461 42.8188C17.0016 40.8086 21.7848 39.7914 28.2754 39.307C29.559 39.2102 34.8992 39.3555 36.5582 39.5371ZM10.4141 48.5949C10.8137 48.7766 11.1891 48.8371 11.843 48.825L12.7148 48.8129V49.152C12.7148 49.3457 12.5937 49.6 12.4484 49.7332C12.1578 50.0117 7.02344 52.3488 7.02344 52.2156C7.02344 52.1672 7.13242 51.7918 7.26562 51.3801C7.64102 50.1813 7.42305 49.8664 5.87305 49.2852C5.52187 49.152 5.5582 49.1277 7.32617 48.3285L9.13047 47.5172L9.50586 47.941C9.69961 48.1711 10.1113 48.4617 10.4141 48.5949ZM56.127 48.9824L56.4902 49.1398L56.127 49.2852C54.577 49.8664 54.359 50.1813 54.7344 51.368C54.8676 51.7797 54.9402 52.143 54.916 52.1793C54.8191 52.2641 49.8422 49.9996 49.5637 49.7332C49.4062 49.5879 49.2852 49.3457 49.2852 49.152V48.8129L50.1691 48.825C51.2105 48.8492 51.9492 48.5707 52.4941 47.941L52.8574 47.5172L54.3105 48.1711C55.1098 48.5344 55.9332 48.8977 56.127 48.9824Z" fill="#6C2165" fill-opacity="0.92"/>
</svg>
